<svg xmlns="http://www.w3.org/2000/svg" enable-background="new 0 0 10 10" viewBox="0 0 10 10"><linearGradient id="a" x1="243.11" x2="250.891" y1="-324.394" y2="-324.394" gradientTransform="matrix(1 0 0 -1 -242 -321)" gradientUnits="userSpaceOnUse"><stop offset="0" stop-color="#b600ff"/><stop offset=".045" stop-color="#ae07ff"/><stop offset="1" stop-color="#0097ff"/></linearGradient><path fill="url(#a)" d="M3.541,4.199C3.478,4.262,3.443,4.344,3.443,4.432c0,0.088,0.034,0.172,0.097,0.234l1.227,1.229C4.83,5.955,4.915,5.99,5,5.99c0.09,0,0.174-0.035,0.234-0.098L6.46,4.666C6.523,4.604,6.559,4.52,6.559,4.432c0-0.088-0.035-0.17-0.098-0.232c-0.126-0.127-0.342-0.127-0.469,0l-0.66,0.66V1.13c0-0.184-0.149-0.332-0.332-0.332S4.668,0.945,4.668,1.129v3.73L4.01,4.199C3.885,4.074,3.663,4.074,3.541,4.199z M4.869,1.129c0-0.072,0.059-0.133,0.131-0.133c0.074,0,0.131,0.059,0.131,0.133V5.1c0,0.041,0.024,0.078,0.062,0.094C5.232,5.209,5.274,5.199,5.302,5.17l0.831-0.83c0.051-0.051,0.135-0.053,0.186,0.002c0.025,0.023,0.039,0.057,0.039,0.09c0,0.035-0.014,0.068-0.039,0.094L5.091,5.754C5.06,5.787,5.021,5.791,5,5.791c-0.033,0-0.067-0.014-0.092-0.039L3.682,4.525C3.657,4.5,3.643,4.467,3.643,4.432c0-0.033,0.014-0.066,0.04-0.092c0.024-0.025,0.056-0.039,0.091-0.039S3.842,4.315,3.868,4.34l0.83,0.83c0.028,0.029,0.071,0.037,0.109,0.023C4.844,5.178,4.869,5.141,4.869,5.1V1.129z"/><linearGradient id="b" x1="243.109" x2="250.891" y1="-327.085" y2="-327.085" gradientTransform="matrix(1 0 0 -1 -242 -321)" gradientUnits="userSpaceOnUse"><stop offset="0" stop-color="#b600ff"/><stop offset=".045" stop-color="#ae07ff"/><stop offset="1" stop-color="#0097ff"/></linearGradient><path fill="url(#b)" d="M8.878,6.139L8.073,3.223C8.044,3.127,7.98,3.053,7.893,3.012c0,0-0.023-0.01-0.024-0.01C7.825,2.982,7.779,2.973,7.73,2.973H6.279c-0.182,0-0.331,0.148-0.331,0.33c0,0.184,0.149,0.33,0.331,0.33H7.5l0.625,2.266H6.456c-0.183,0-0.332,0.148-0.332,0.33v0.209c0,0.252-0.204,0.455-0.455,0.455H4.258c-0.25,0-0.455-0.203-0.455-0.455V6.229c0-0.182-0.149-0.33-0.332-0.33H1.875l0.628-2.27h1.218c0.183,0,0.332-0.148,0.332-0.332c0-0.186-0.146-0.33-0.332-0.33h-1.45c-0.05,0-0.097,0.01-0.137,0.029c-0.001,0-0.024,0.01-0.025,0.012c-0.09,0.043-0.156,0.119-0.18,0.213L1.122,6.135C1.116,6.16,1.11,6.188,1.11,6.221v1.215c0,0.976,0.793,1.769,1.769,1.769h4.243c0.976,0,1.769-0.793,1.769-1.769V6.227C8.891,6.195,8.889,6.162,8.878,6.139z M7.122,9.004H2.879c-0.865,0-1.569-0.703-1.569-1.568V6.221c0-0.012,0.003-0.027,0.005-0.035l0.806-2.914c0.01-0.035,0.036-0.066,0.07-0.082c0,0,0.024-0.012,0.025-0.012C2.232,3.17,2.25,3.166,2.271,3.166h1.451c0.074,0,0.131,0.059,0.131,0.131c0,0.074-0.058,0.133-0.131,0.133H2.428c-0.045,0-0.084,0.029-0.096,0.074L1.648,5.971C1.64,6,1.646,6.033,1.665,6.059c0.019,0.023,0.048,0.039,0.08,0.039h1.728c0.074,0,0.131,0.06,0.131,0.131v0.209c0,0.361,0.294,0.654,0.655,0.654H5.67c0.361,0,0.655-0.293,0.655-0.654V6.229c0-0.071,0.058-0.131,0.131-0.131h1.8c0.031,0,0.061-0.016,0.08-0.039c0.018-0.025,0.023-0.057,0.016-0.088l-0.68-2.463C7.661,3.463,7.621,3.434,7.576,3.434H6.279c-0.073,0-0.131-0.057-0.131-0.131c0-0.072,0.059-0.131,0.131-0.131H7.73c0.02,0,0.039,0.004,0.076,0.021C7.844,3.209,7.87,3.24,7.881,3.277l0.807,2.922c0,0.002,0.002,0.008,0.002,0.027v1.209C8.689,8.301,7.986,9.004,7.122,9.004z"/><linearGradient id="c" x1="243.109" x2="250.89" y1="-328.551" y2="-328.551" gradientTransform="matrix(1 0 0 -1 -242 -321)" gradientUnits="userSpaceOnUse"><stop offset="0" stop-color="#b600ff"/><stop offset=".045" stop-color="#ae07ff"/><stop offset="1" stop-color="#0097ff"/></linearGradient><path fill="url(#c)" d="M8.331,6.361h-1.64c-0.055,0-0.1,0.043-0.101,0.098C6.582,6.951,6.17,7.354,5.674,7.354H4.262c-0.495,0-0.906-0.401-0.917-0.895c-0.001-0.055-0.046-0.098-0.1-0.098H1.673c-0.055,0-0.1,0.043-0.1,0.1v0.975c0,0.719,0.586,1.306,1.306,1.306h4.243c0.712,0,1.292-0.572,1.306-1.279c0.002-0.01,0.004-0.019,0.004-0.024V6.461C8.432,6.404,8.387,6.361,8.331,6.361z"/></svg>