<svg xmlns="http://www.w3.org/2000/svg" fill="none" viewBox="0 0 16 16"><path fill="#000" fill-rule="evenodd" d="M2 4.5C2 3.11929 3.11929 2 4.5 2H11.5C12.8807 2 14 3.11929 14 4.5V11.5C14 12.8807 12.8807 14 11.5 14H4.5C3.11929 14 2 12.8807 2 11.5V4.5ZM4.5 3C3.67157 3 3 3.67157 3 4.5V11.5C3 12.3284 3.67157 13 4.5 13H11.5C12.3284 13 13 12.3284 13 11.5V4.5C13 3.67157 12.3284 3 11.5 3H4.5Z" clip-rule="evenodd"/><path fill="#000" fill-rule="evenodd" d="M11.3536 5.64645C11.5488 5.84171 11.5488 6.15829 11.3536 6.35355L7.60355 10.1036C7.40829 10.2988 7.09171 10.2988 6.89645 10.1036L4.89645 8.10355C4.70118 7.90829 4.70118 7.59171 4.89645 7.39645C5.09171 7.20118 5.40829 7.20118 5.60355 7.39645L7.25 9.04289L10.6464 5.64645C10.8417 5.45118 11.1583 5.45118 11.3536 5.64645Z" clip-rule="evenodd"/></svg>