<svg xmlns="http://www.w3.org/2000/svg" viewBox="0 0 10 10"><linearGradient id="a" x1="242.797" x2="251.204" y1="-326" y2="-326" gradientTransform="matrix(1 0 0 -1 -242 -321)" gradientUnits="userSpaceOnUse"><stop offset="0" stop-color="#b600ff"/><stop offset=".045" stop-color="#ae07ff"/><stop offset="1" stop-color="#0097ff"/></linearGradient><path fill="url(#a)" d="M.797 4.7c0 .096.044.188.119.252l3.621 2.996a.326.326 0 0 0 .21.073c.049 0 .095-.01.139-.028a.33.33 0 0 0 .19-.298V6.229c1.406.01 2.347.164 3.515 2.221a.328.328 0 0 0 .612-.162v-.183c.004-.795.01-1.996-.544-3.021-.636-1.173-1.843-1.81-3.585-1.894V1.712a.327.327 0 0 0-.534-.252L.917 4.446a.329.329 0 0 0-.12.254zm.2 0a.13.13 0 0 1 .047-.1l3.623-2.986a.123.123 0 0 1 .082-.029.124.124 0 0 1 .125.127v1.574c0 .053.043.098.097.1 1.72.063 2.901.666 3.513 1.793.529.98.522 2.152.52 2.928v.182a.13.13 0 0 1-.096.125.148.148 0 0 1-.143-.061C7.54 6.191 6.518 6.034 4.977 6.027h-.001a.099.099 0 0 0-.099.1v1.568a.128.128 0 0 1-.073.115.135.135 0 0 1-.14-.019l-3.62-2.994A.13.13 0 0 1 .997 4.7z"/><linearGradient id="b" x1="242.797" x2="251.204" y1="-325.841" y2="-325.841" gradientTransform="matrix(1 0 0 -1 -242 -321)" gradientUnits="userSpaceOnUse"><stop offset="0" stop-color="#b600ff"/><stop offset=".045" stop-color="#ae07ff"/><stop offset="1" stop-color="#0097ff"/></linearGradient><path fill="url(#b)" d="M4.458 2.116c.029-.025.07-.029.105-.014s.058.051.058.09v1.314c0 .07.057.127.126.127 1.767.016 2.916.561 3.515 1.668.396.734.467 1.598.483 2.184a.103.103 0 0 1-.098.105.105.105 0 0 1-.084-.043c-.488-.713-.984-1.17-1.561-1.438-.663-.31-1.354-.334-2.255-.334a.14.14 0 0 0-.092.039.119.119 0 0 0-.036.086v1.313a.1.1 0 0 1-.058.091.106.106 0 0 1-.106-.012L1.418 4.776a.099.099 0 0 1 .001-.154l3.039-2.506z"/></svg>