<svg xmlns="http://www.w3.org/2000/svg" fill="none" viewBox="0 0 38 39"><path stroke="url(#a)" stroke-linecap="round" stroke-linejoin="round" stroke-width="1.5" d="M16.4175 17.9999H13.5815C13.1654 17.9965 12.7649 18.1585 12.4682 18.4503C12.1716 18.7421 12.0029 19.1398 11.9995 19.5559V25.4449C12.0072 26.3111 12.7154 27.0071 13.5815 26.9999H16.4175C16.8336 27.0034 17.2341 26.8414 17.5308 26.5496C17.8275 26.2578 17.9961 25.8601 17.9995 25.4439V19.5559C17.9961 19.1398 17.8275 18.7421 17.5308 18.4503C17.2341 18.1585 16.8336 17.9965 16.4175 17.9999Z" clip-rule="evenodd"/><path stroke="url(#b)" stroke-linecap="round" stroke-linejoin="round" stroke-width="1.5" d="M16.4175 12H13.5815C12.7328 11.9765 12.0251 12.6443 11.9995 13.493V14.507C12.0251 15.3557 12.7328 16.0235 13.5815 16H16.4175C17.2663 16.0235 17.9739 15.3557 17.9995 14.507V13.493C17.9739 12.6443 17.2663 11.9765 16.4175 12Z" clip-rule="evenodd"/><path stroke="url(#c)" stroke-linecap="round" stroke-linejoin="round" stroke-width="1.5" d="M21.5815 21.0001H24.4165C24.8328 21.0038 25.2335 20.8419 25.5304 20.5501C25.8273 20.2582 25.9961 19.8604 25.9995 19.4441V13.5561C25.9961 13.1399 25.8275 12.7422 25.5308 12.4504C25.2341 12.1586 24.8336 11.9966 24.4175 12.0001H21.5815C21.1654 11.9966 20.7649 12.1586 20.4682 12.4504C20.1716 12.7422 20.0029 13.1399 19.9995 13.5561V19.4441C20.0029 19.8602 20.1716 20.2579 20.4682 20.5497C20.7649 20.8415 21.1654 21.0035 21.5815 21.0001Z" clip-rule="evenodd"/><path stroke="url(#d)" stroke-linecap="round" stroke-linejoin="round" stroke-width="1.5" d="M21.5815 27H24.4165C25.2656 27.0241 25.9739 26.3561 25.9995 25.507V24.493C25.9739 23.6443 25.2663 22.9765 24.4175 23H21.5815C20.7328 22.9765 20.0251 23.6443 19.9995 24.493V25.506C20.0246 26.3551 20.7324 27.0235 21.5815 27Z" clip-rule="evenodd"/><circle cx="19" cy="19.5" r="18.121" stroke="url(#e)" stroke-linecap="round" stroke-linejoin="round" stroke-width="1.5"/><defs><linearGradient id="a" x1="14.999" x2="14.999" y1="18" y2="27" gradientUnits="userSpaceOnUse"><stop stop-color="#30F"/><stop offset=".531" stop-color="#FF00F5"/><stop offset="1" stop-color="#F90"/></linearGradient><linearGradient id="b" x1="14.999" x2="14.999" y1="11.999" y2="16.001" gradientUnits="userSpaceOnUse"><stop stop-color="#30F"/><stop offset=".531" stop-color="#FF00F5"/><stop offset="1" stop-color="#F90"/></linearGradient><linearGradient id="c" x1="23" x2="23" y1="12" y2="21" gradientUnits="userSpaceOnUse"><stop stop-color="#30F"/><stop offset=".531" stop-color="#FF00F5"/><stop offset="1" stop-color="#F90"/></linearGradient><linearGradient id="d" x1="23" x2="23" y1="22.999" y2="27.001" gradientUnits="userSpaceOnUse"><stop stop-color="#30F"/><stop offset=".531" stop-color="#FF00F5"/><stop offset="1" stop-color="#F90"/></linearGradient><linearGradient id="e" x1="19" x2="19" y1="1.379" y2="37.621" gradientUnits="userSpaceOnUse"><stop stop-color="#30F"/><stop offset=".531" stop-color="#FF00F5"/><stop offset="1" stop-color="#F90"/></linearGradient></defs></svg>