<svg xmlns="http://www.w3.org/2000/svg" viewBox="0 0 10 10"><linearGradient id="a" x1="243.25" x2="250.749" y1="-326" y2="-326" gradientTransform="matrix(1 0 0 -1 -242 -321)" gradientUnits="userSpaceOnUse"><stop offset="0" stop-color="#b600ff"/><stop offset=".045" stop-color="#ae07ff"/><stop offset="1" stop-color="#0097ff"/></linearGradient><path fill="url(#a)" d="M8.421 1.978H6.814v-.179c0-.553-.451-1.002-1.004-1.002H4.188c-.553 0-1.002.449-1.002 1.002v.179H1.578a.328.328 0 1 0 0 .655h.312v5.252c0 .729.591 1.318 1.318 1.318h3.583a1.32 1.32 0 0 0 1.318-1.318V2.633h.312a.328.328 0 1 0 0-.655zm0 .456H8.01a.1.1 0 0 0-.1.1v5.352a1.12 1.12 0 0 1-1.118 1.119H3.208A1.12 1.12 0 0 1 2.09 7.886V2.533a.1.1 0 0 0-.1-.1h-.412a.127.127 0 0 1-.127-.129c0-.07.056-.127.127-.127h1.708a.1.1 0 0 0 .1-.1v-.278c0-.442.36-.803.802-.803h1.623c.443 0 .803.36.803.803v.279c0 .055.046.1.101.1h1.707c.072 0 .128.057.128.127a.129.129 0 0 1-.129.129z"/><linearGradient id="b" x1="243.25" x2="250.749" y1="-322.715" y2="-322.715" gradientTransform="matrix(1 0 0 -1 -242 -321)" gradientUnits="userSpaceOnUse"><stop offset="0" stop-color="#b600ff"/><stop offset=".045" stop-color="#ae07ff"/><stop offset="1" stop-color="#0097ff"/></linearGradient><path fill="url(#b)" d="M3.741 2.178h2.517a.1.1 0 0 0 .1-.1v-.279a.548.548 0 0 0-.547-.547H4.188a.548.548 0 0 0-.547.547v.279a.1.1 0 0 0 .1.1z"/><linearGradient id="c" x1="243.25" x2="250.75" y1="-326.592" y2="-326.592" gradientTransform="matrix(1 0 0 -1 -242 -321)" gradientUnits="userSpaceOnUse"><stop offset="0" stop-color="#b600ff"/><stop offset=".045" stop-color="#ae07ff"/><stop offset="1" stop-color="#0097ff"/></linearGradient><path fill="url(#c)" d="M7.557 2.434H2.446a.1.1 0 0 0-.1.1v5.352c0 .478.387.863.863.863h3.583c.47 0 .853-.377.862-.845l.002-.02V2.533a.1.1 0 0 0-.099-.099zm-.944 1.393v3.524a.127.127 0 1 1-.254 0V3.827c0-.071.057-.128.127-.128.073 0 .127.057.127.128zm-1.486-.249v4.025c0 .07-.057.127-.127.127a.13.13 0 0 1-.128-.129V3.578a.127.127 0 1 1 .255 0zm-1.486.249v3.524a.128.128 0 0 1-.127.129.129.129 0 0 1-.127-.129V3.827a.127.127 0 1 1 .254 0z"/></svg>