<svg xmlns="http://www.w3.org/2000/svg" enable-background="new 0 0 512 512" viewBox="0 0 512 512"><linearGradient id="a" x1="77.453" x2="379.915" y1="407.231" y2="104.769" gradientUnits="userSpaceOnUse"><stop offset="0" stop-color="#fcc60e"/><stop offset="1" stop-color="#e92e29"/></linearGradient><path fill="url(#a)" d="M380.662,389.413c4.712,4.66,4.755,12.259,0.095,16.971c-40.489,40.945-94.493,63.495-152.064,63.495
	c-57.129,0-110.839-22.247-151.236-62.644C37.061,366.839,14.813,313.129,14.813,256s22.248-110.839,62.644-151.235
	c40.396-40.396,94.106-62.644,151.236-62.644c57.571,0,111.575,22.55,152.064,63.495c4.66,4.712,4.618,12.311-0.095,16.97
	c-4.712,4.662-12.311,4.617-16.97-0.095c-35.946-36.351-83.89-56.37-134.999-56.37c-104.7,0-189.879,85.18-189.879,189.879
	s85.18,189.879,189.879,189.879c51.11,0,99.053-20.02,134.999-56.37C368.352,384.796,375.95,384.754,380.662,389.413z
	 M493.672,247.515l-65.911-65.911c-4.686-4.687-12.284-4.686-16.971,0c-4.686,4.687-4.687,12.284,0,16.971L456.216,244H228.693
	c-6.627,0-12,5.372-12,12s5.373,12,12,12h227.523l-45.425,45.426c-4.687,4.687-4.686,12.284,0,16.971
	c2.343,2.343,5.414,3.515,8.485,3.515s6.142-1.172,8.485-3.515l65.911-65.911C498.358,259.799,498.358,252.201,493.672,247.515z"/></svg>