<svg xmlns="http://www.w3.org/2000/svg" fill="none" viewBox="0 0 38 38"><circle cx="19.121" cy="19.121" r="18.121" stroke="url(#a)" stroke-linecap="round" stroke-linejoin="round" stroke-width="1.5"/><path stroke="url(#b)" stroke-linecap="round" stroke-width="1.5" d="M16.467 17.784H13L12.5 22.392"/><path stroke="url(#c)" stroke-linecap="round" stroke-width="1.5" d="M21.533 17.783H25L25.5 22.383"/><path stroke="url(#d)" stroke-linecap="round" stroke-width="1.5" d="M12.5 22.392L12 26.992H18"/><path stroke="url(#e)" stroke-linecap="round" stroke-width="1.5" d="M12.5 22.392L15.117 20.621"/><path stroke="url(#f)" stroke-linecap="round" stroke-width="1.5" d="M17.7329 18.846L15.1169 20.617"/><path stroke="url(#g)" stroke-linecap="round" stroke-width="1.5" d="M15.1169 20.617L17.9999 26.992"/><path stroke="url(#h)" stroke-linecap="round" stroke-width="1.5" d="M18 26.992H21"/><path stroke="url(#i)" stroke-linecap="round" stroke-width="1.5" d="M21 26.992H26L25.5 22.392"/><path stroke="url(#j)" stroke-linecap="round" stroke-linejoin="round" stroke-width="1.5" d="M20.4 14.242C20.3906 15.0129 19.7597 15.6312 18.9888 15.625C18.2179 15.6187 17.597 14.9904 17.6001 14.2194C17.6032 13.4484 18.229 12.8251 19 12.825C19.3736 12.8271 19.731 12.9776 19.9936 13.2434C20.2562 13.5092 20.4024 13.8684 20.4 14.242V14.242Z" clip-rule="evenodd"/><path stroke="url(#k)" stroke-linecap="round" stroke-width="1.5" d="M21 26.992L25.5 22.392"/><path stroke="url(#l)" stroke-linecap="round" stroke-width="1.5" d="M16.467 17.792L16.289 17.643C15.3428 16.8262 14.7988 15.638 14.7988 14.388C14.7988 13.138 15.3428 11.9498 16.289 11.133C18.314 9.46798 20.029 9.78498 21.71 11.133C22.6563 11.9498 23.2002 13.138 23.2002 14.388C23.2002 15.638 22.6563 16.8262 21.71 17.643L21.532 17.792"/><path stroke="url(#m)" stroke-linecap="round" stroke-width="1.5" d="M16.4659 17.792L17.7329 18.846"/><path stroke="url(#n)" stroke-linecap="round" stroke-width="1.5" d="M21.533 17.783L19 19.909L17.733 18.846"/><defs><linearGradient id="a" x1="19.121" x2="19.121" y1="1" y2="37.241" gradientUnits="userSpaceOnUse"><stop stop-color="#30F"/><stop offset=".531" stop-color="#FF00F5"/><stop offset="1" stop-color="#F90"/></linearGradient><linearGradient id="b" x1="14.483" x2="14.483" y1="17.784" y2="22.392" gradientUnits="userSpaceOnUse"><stop stop-color="#30F"/><stop offset=".531" stop-color="#FF00F5"/><stop offset="1" stop-color="#F90"/></linearGradient><linearGradient id="c" x1="23.517" x2="23.517" y1="17.783" y2="22.383" gradientUnits="userSpaceOnUse"><stop stop-color="#30F"/><stop offset=".531" stop-color="#FF00F5"/><stop offset="1" stop-color="#F90"/></linearGradient><linearGradient id="d" x1="15" x2="15" y1="22.392" y2="26.992" gradientUnits="userSpaceOnUse"><stop stop-color="#30F"/><stop offset=".531" stop-color="#FF00F5"/><stop offset="1" stop-color="#F90"/></linearGradient><linearGradient id="e" x1="13.809" x2="13.809" y1="20.621" y2="22.392" gradientUnits="userSpaceOnUse"><stop stop-color="#30F"/><stop offset=".531" stop-color="#FF00F5"/><stop offset="1" stop-color="#F90"/></linearGradient><linearGradient id="f" x1="16.425" x2="16.425" y1="18.846" y2="20.617" gradientUnits="userSpaceOnUse"><stop stop-color="#30F"/><stop offset=".531" stop-color="#FF00F5"/><stop offset="1" stop-color="#F90"/></linearGradient><linearGradient id="g" x1="16.558" x2="16.558" y1="20.617" y2="26.992" gradientUnits="userSpaceOnUse"><stop stop-color="#30F"/><stop offset=".531" stop-color="#FF00F5"/><stop offset="1" stop-color="#F90"/></linearGradient><linearGradient id="h" x1="19.5" x2="19.5" y1="26.492" y2="27.492" gradientUnits="userSpaceOnUse"><stop stop-color="#30F"/><stop offset=".531" stop-color="#FF00F5"/><stop offset="1" stop-color="#F90"/></linearGradient><linearGradient id="i" x1="23.5" x2="23.5" y1="22.392" y2="26.992" gradientUnits="userSpaceOnUse"><stop stop-color="#30F"/><stop offset=".531" stop-color="#FF00F5"/><stop offset="1" stop-color="#F90"/></linearGradient><linearGradient id="j" x1="19" x2="19" y1="12.825" y2="15.625" gradientUnits="userSpaceOnUse"><stop stop-color="#30F"/><stop offset=".531" stop-color="#FF00F5"/><stop offset="1" stop-color="#F90"/></linearGradient><linearGradient id="k" x1="23.25" x2="23.25" y1="22.392" y2="26.992" gradientUnits="userSpaceOnUse"><stop stop-color="#30F"/><stop offset=".531" stop-color="#FF00F5"/><stop offset="1" stop-color="#F90"/></linearGradient><linearGradient id="l" x1="19" x2="19" y1="10" y2="17.792" gradientUnits="userSpaceOnUse"><stop stop-color="#30F"/><stop offset=".531" stop-color="#FF00F5"/><stop offset="1" stop-color="#F90"/></linearGradient><linearGradient id="m" x1="17.099" x2="17.099" y1="17.792" y2="18.846" gradientUnits="userSpaceOnUse"><stop stop-color="#30F"/><stop offset=".531" stop-color="#FF00F5"/><stop offset="1" stop-color="#F90"/></linearGradient><linearGradient id="n" x1="19.633" x2="19.633" y1="17.783" y2="19.909" gradientUnits="userSpaceOnUse"><stop stop-color="#30F"/><stop offset=".531" stop-color="#FF00F5"/><stop offset="1" stop-color="#F90"/></linearGradient></defs></svg>