<svg xmlns="http://www.w3.org/2000/svg" fill="none" viewBox="0 0 39 39"><path stroke="url(#a)" stroke-linecap="round" stroke-linejoin="round" stroke-width="1.5" d="M17.8657 25.8955C18.4956 26.527 19.4744 26.6488 20.2399 26.191C21.0053 25.7332 21.3611 24.8132 21.1027 23.9595C21.4971 24.6902 22.3121 25.0897 23.1312 24.954C23.9504 24.8182 24.5929 24.1772 24.7305 23.3583C24.8681 22.5395 24.4705 21.7236 23.7407 21.3275C24.537 21.5665 25.3971 21.2725 25.8807 20.5963C26.3642 19.92 26.3642 19.0111 25.8807 18.3348C25.3971 17.6585 24.537 17.3646 23.7407 17.6035C24.4678 17.2064 24.8632 16.392 24.7258 15.575C24.5884 14.758 23.9482 14.1179 23.1312 13.9804C22.3142 13.843 21.4999 14.2385 21.1027 14.9655C21.3416 14.1692 21.0477 13.3091 20.3714 12.8256C19.6952 12.342 18.7862 12.342 18.11 12.8256C17.4337 13.3091 17.1398 14.1692 17.3787 14.9655C16.9815 14.2385 16.1672 13.843 15.3502 13.9804C14.5331 14.1179 13.893 14.758 13.7556 15.575C13.6181 16.392 14.0136 17.2064 14.7407 17.6035C13.9444 17.3646 13.0843 17.6585 12.6007 18.3348C12.1171 19.0111 12.1171 19.92 12.6007 20.5963C13.0843 21.2725 13.9444 21.5665 14.7407 21.3275C14.0136 21.7247 13.6181 22.5391 13.7556 23.3561C13.893 24.1731 14.5331 24.8132 15.3502 24.9507C16.1672 25.0881 16.9815 24.6926 17.3787 23.9655C17.1724 24.651 17.3595 25.3944 17.8657 25.9005V25.8955Z" clip-rule="evenodd"/><path stroke="url(#b)" stroke-linecap="round" stroke-linejoin="round" stroke-width="1.5" d="M20.9907 17.7156L17.4907 21.2156"/><path stroke="url(#c)" stroke-linecap="round" stroke-linejoin="round" stroke-width="1.5" d="M17.2407 16.4656C17.7929 16.4656 18.2407 16.9133 18.2407 17.4656C18.2407 18.0179 17.7929 18.4656 17.2407 18.4656C16.6884 18.4656 16.2407 18.0179 16.2407 17.4656C16.2407 16.9133 16.6884 16.4656 17.2407 16.4656Z"/><path stroke="url(#d)" stroke-linecap="round" stroke-linejoin="round" stroke-width="1.5" d="M21.2407 20.4656C21.7929 20.4656 22.2407 20.9133 22.2407 21.4656C22.2407 22.0179 21.7929 22.4656 21.2407 22.4656C20.6884 22.4656 20.2407 22.0179 20.2407 21.4656C20.2407 20.9133 20.6884 20.4656 21.2407 20.4656Z"/><circle cx="19.241" cy="19.465" r="18.121" stroke="url(#e)" stroke-linecap="round" stroke-linejoin="round" stroke-width="1.5"/><defs><linearGradient id="a" x1="19.241" x2="19.241" y1="12.463" y2="26.467" gradientUnits="userSpaceOnUse"><stop stop-color="#30F"/><stop offset=".531" stop-color="#FF00F5"/><stop offset="1" stop-color="#F90"/></linearGradient><linearGradient id="b" x1="19.241" x2="19.241" y1="17.716" y2="21.216" gradientUnits="userSpaceOnUse"><stop stop-color="#30F"/><stop offset=".531" stop-color="#FF00F5"/><stop offset="1" stop-color="#F90"/></linearGradient><linearGradient id="c" x1="17.241" x2="17.241" y1="16.466" y2="18.466" gradientUnits="userSpaceOnUse"><stop stop-color="#30F"/><stop offset=".531" stop-color="#FF00F5"/><stop offset="1" stop-color="#F90"/></linearGradient><linearGradient id="d" x1="21.241" x2="21.241" y1="20.466" y2="22.466" gradientUnits="userSpaceOnUse"><stop stop-color="#30F"/><stop offset=".531" stop-color="#FF00F5"/><stop offset="1" stop-color="#F90"/></linearGradient><linearGradient id="e" x1="19.241" x2="19.241" y1="1.344" y2="37.585" gradientUnits="userSpaceOnUse"><stop stop-color="#30F"/><stop offset=".531" stop-color="#FF00F5"/><stop offset="1" stop-color="#F90"/></linearGradient></defs></svg>